<svg width="18" height="18" viewBox="0 0 18 18" xmlns="http://www.w3.org/2000/svg">
<path d="M9 1C6.87827 1 4.84344 1.84285 3.34315 3.34315C1.84285 4.84344 1 6.87827 1 9C1 11.1217 1.84285 13.1566 3.34315 14.6569C4.84344 16.1571 6.87827 17 9 17C11.1217 17 13.1566 16.1571 14.6569 14.6569C16.1571 13.1566 17 11.1217 17 9C17 6.87827 16.1571 4.84344 14.6569 3.34315C13.1566 1.84285 11.1217 1 9 1ZM8 15.32C7.13432 15.1819 6.30624 14.8674 5.56711 14.3961C4.82798 13.9248 4.19356 13.3066 3.70319 12.58C3.21282 11.8533 2.87696 11.0337 2.71643 10.1719C2.55591 9.31006 2.57414 8.42447 2.77 7.57L7 11.68V12.48C7 13.36 7.12 13.8 8 13.8V15.32ZM13.72 13.32C13.52 12.66 12.72 12 12 12H11V10C11 9.56 10.44 9 10 9H6V7H7C7.44 7 8 6.44 8 6V5H10C10.88 5 11.4 4.28 11.4 3.4V3.07C12.3551 3.45825 13.2023 4.0715 13.8694 4.85755C14.5365 5.6436 15.0039 6.57919 15.2317 7.5847C15.4595 8.5902 15.441 9.63586 15.1778 10.6327C14.9146 11.6295 14.4145 12.548 13.72 13.31V13.32Z" fill="#c4c8cc"/>
</svg>
