<svg class="s-input-icon s-input-icon__search svg-icon iconSearch" width="18" height="18" viewBox="0 0 18 18" fill="none" xmlns="http://www.w3.org/2000/svg">
<path fill-rule="evenodd" clip-rule="evenodd" d="M18 16.5L12.864 11.321L12.5079 11.3206C13.4426 10.1307 14 8.63044 14 7C14 3.13401 10.866 0 7 0C3.13401 0 0 3.13401 0 7C0 10.866 3.13401 14 7 14C8.6311 14 10.1319 13.4421 11.322 12.5068V12.864L16.5 18L18 16.5ZM12 7C12 9.76142 9.76142 12 7 12C4.23858 12 2 9.76142 2 7C2 4.23858 4.23858 2 7 2C9.76142 2 12 4.23858 12 7Z" fill="black"/>
</svg>
